HIERARCHY
ROOT root
{
	OFFSET 0.000000 0.000000 0.000000
	CHANNELS 6 Xposition Yposition Zposition Zrotation Yrotation Xrotation
	JOINT lhip
	{
		OFFSET 0.058581 -0.082280 -0.017664
		CHANNELS 3 Zrotation Yrotation Xrotation
		JOINT lknee
		{
			OFFSET 0.043451 -0.386469 0.008037
			CHANNELS 3 Zrotation Yrotation Xrotation
			JOINT lankle
			{
				OFFSET -0.014790 -0.426874 -0.037428
				CHANNELS 3 Zrotation Yrotation Xrotation
				JOINT ltoe
				{
					OFFSET 0.041054 -0.060286 0.122042
					CHANNELS 3 Zrotation Yrotation Xrotation
					End Site
					{
						OFFSET 0.000000 0.000000 0.000000
					}
				}
			}
		}
	}
	JOINT rhip
	{
		OFFSET -0.060310 -0.090513 -0.013543
		CHANNELS 3 Zrotation Yrotation Xrotation
		JOINT rknee
		{
			OFFSET -0.043257 -0.383688 -0.004843
			CHANNELS 3 Zrotation Yrotation Xrotation
			JOINT rankle
			{
				OFFSET 0.019056 -0.420046 -0.034562
				CHANNELS 3 Zrotation Yrotation Xrotation
				JOINT rtoe
				{
					OFFSET -0.034840 -0.062106 0.130323
					CHANNELS 3 Zrotation Yrotation Xrotation
					End Site
					{
						OFFSET 0.000000 0.000000 0.000000
					}
				}
			}
		}
	}
	JOINT lowerback
	{
		OFFSET 0.004439 0.124404 -0.038385
		CHANNELS 3 Zrotation Yrotation Xrotation
		JOINT upperback
		{
			OFFSET 0.004488 0.137956 0.026820
			CHANNELS 3 Zrotation Yrotation Xrotation
			JOINT chest
			{
				OFFSET -0.002265 0.056032 0.002855
				CHANNELS 3 Zrotation Yrotation Xrotation
				JOINT lowerneck
				{
					OFFSET -0.013390 0.211636 -0.033468
					CHANNELS 3 Zrotation Yrotation Xrotation
					JOINT upperneck
					{
						OFFSET 0.010113 0.088937 0.050410
						CHANNELS 3 Zrotation Yrotation Xrotation
						End Site
						{
							OFFSET 0.000000 0.000000 0.000000
						}
					}
				}
				JOINT lclavicle
				{
					OFFSET 0.071702 0.114000 -0.018898
					CHANNELS 3 Zrotation Yrotation Xrotation
					JOINT lshoulder
					{
						OFFSET 0.122921 0.045205 -0.019046
						CHANNELS 3 Zrotation Yrotation Xrotation
						JOINT lelbow
						{
							OFFSET 0.255332 -0.015649 -0.022946
							CHANNELS 3 Zrotation Yrotation Xrotation
							JOINT lwrist
							{
								OFFSET 0.265709 0.012698 -0.007375
								CHANNELS 3 Zrotation Yrotation Xrotation
								End Site
								{
									OFFSET 0.000000 0.000000 0.000000
								}
							}
						}
					}
				}
				JOINT rclavicle
				{
					OFFSET -0.082954 0.112472 -0.023707
					CHANNELS 3 Zrotation Yrotation Xrotation
					JOINT rshoulder
					{
						OFFSET -0.113228 0.046853 -0.008472
						CHANNELS 3 Zrotation Yrotation Xrotation
						JOINT relbow
						{
							OFFSET -0.260127 -0.014369 -0.031269
							CHANNELS 3 Zrotation Yrotation Xrotation
							JOINT rwrist
							{
								OFFSET -0.269108 0.006794 -0.006027
								CHANNELS 3 Zrotation Yrotation Xrotation
								End Site
								{
									OFFSET 0.000000 0.000000 0.000000
								}
							}
						}
					}
				}
			}
		}
	}
}
MOTION
Frames: 13
Frame Time: 0.033333
1.814988 0.574954 0.985822 -96.289573 4.045742 88.745835 1.390540 -1.833043 -0.870473 -3.041796 -11.317689 3.989155 6.662781 10.999471 -15.456798 0.000000 -0.000000 0.000000 4.448849 1.526519 -10.370404 1.680304 -0.465270 17.785617 2.827058 -5.873340 -13.427023 0.000000 -0.000000 0.000000 -2.634913 2.331156 12.076731 3.226216 -0.113598 3.258580 1.442710 -0.523165 6.110234 6.392848 2.811954 11.546019 3.792551 -3.847010 16.312739 -20.822942 8.054009 2.871474 -61.263816 -8.103783 10.824320 12.872767 -40.897058 2.914054 2.263669 -3.083385 -15.828850 21.041418 -6.262672 3.220253 64.045135 -0.293100 10.784436 -18.482815 28.085005 -4.497148 5.052326 4.073291 -9.726344 
1.810099 0.575236 0.985004 -95.836706 3.605417 88.553148 0.983001 -1.850100 -0.207005 -3.158787 -11.520801 3.725203 6.657427 10.711416 -15.606212 0.000000 -0.000000 0.000000 3.761807 0.559319 -8.753576 1.698421 -0.947577 15.698334 2.882932 -5.722095 -12.215726 0.000000 -0.000000 0.000000 -2.501532 2.433430 11.647945 3.033258 -0.363111 3.329325 1.203725 -0.577989 6.145066 6.107478 2.900527 11.701264 3.678466 -3.552163 16.666012 -20.890419 8.103298 2.795151 -61.522591 -8.423201 10.881533 12.959945 -40.850550 3.170757 2.310777 -2.966189 -15.909657 20.990701 -6.667630 3.147234 64.435250 -0.781298 10.561988 -18.647681 27.598857 -4.615990 5.286533 3.862163 -9.780364 
1.805063 0.575751 0.985303 -95.394277 3.559383 88.203445 0.837999 -1.901118 0.752475 -2.861003 -11.951073 3.179493 6.421073 10.746617 -15.375198 0.000000 -0.000000 0.000000 3.594635 0.155669 -7.113200 1.981976 -0.727578 14.146818 2.860087 -5.721713 -12.159645 0.000000 -0.000000 0.000000 -1.950077 2.329813 11.426469 2.879611 -0.407828 3.258745 1.024687 -0.596467 6.281814 5.798156 2.954419 11.805561 3.482236 -3.258260 16.944192 -21.363781 8.293313 2.586041 -61.960532 -8.422668 11.081448 13.272926 -40.654737 3.154679 2.058021 -3.304595 -16.440662 21.093359 -7.048040 2.926641 64.216567 -0.951385 10.448123 -18.266100 26.917416 -4.286023 5.304512 3.656375 -9.336600 
1.801255 0.575843 0.987122 -95.363010 3.549977 88.184385 0.738067 -2.167945 0.754611 -2.894610 -11.760106 3.874180 6.343984 10.802019 -15.882057 0.000000 -0.000000 0.000000 3.582427 -0.149920 -6.112987 1.931402 -0.856939 12.967300 2.929112 -5.452602 -11.524015 0.000000 -0.000000 0.000000 -1.412950 2.566438 10.869516 2.748798 -0.222428 3.261749 0.996453 -0.579027 6.146995 5.333693 2.942780 11.974358 3.586527 -2.368390 16.504041 -21.606258 8.542095 2.633555 -63.258744 -8.384835 11.156085 13.779487 -40.297397 2.520241 0.722623 -2.630403 -17.348465 20.932513 -7.494800 2.901382 63.866853 -0.918099 10.202289 -17.970976 26.702861 -3.879621 6.490005 3.456288 -9.284426 
1.798572 0.576257 0.987544 -95.152032 3.585284 88.037596 0.670869 -2.156110 1.029707 -2.681414 -11.873419 4.018275 6.418623 10.840628 -16.038163 0.000000 -0.000000 0.000000 3.577753 -0.389242 -5.208755 2.095759 -0.774895 12.015246 2.922312 -5.526909 -11.498027 0.000000 -0.000000 0.000000 -1.221802 2.568048 10.514535 2.774567 -0.263710 3.485436 0.983092 -0.566005 6.209378 5.327022 2.820517 11.584114 3.529509 -2.181853 16.148498 -21.711979 8.743296 2.579026 -63.846319 -8.168487 11.348741 13.233153 -40.127092 3.382181 0.958332 -2.633805 -17.185875 20.755268 -7.635386 2.748911 63.756214 -0.921415 10.199155 -17.711498 26.911667 -3.773254 6.110212 3.492456 -9.291381 
1.795840 0.576865 0.987331 -94.967863 3.561367 87.924471 0.656184 -2.099097 1.165713 -2.675426 -11.940224 4.346647 6.265595 10.830487 -16.747521 0.000000 -0.000000 0.000000 3.517612 -0.646133 -4.497667 2.333640 -0.573102 11.381504 2.864903 -5.487261 -11.824998 0.000000 -0.000000 0.000000 -1.039502 2.452790 10.141126 2.711663 -0.400664 3.467285 0.870805 -0.479404 6.348994 5.550808 2.959106 11.156140 3.369736 -2.094949 15.879567 -21.825684 8.918792 2.462024 -64.015334 -7.588727 11.666374 11.762811 -39.745055 5.316471 1.488858 -2.811623 -16.372476 20.852329 -7.732642 2.378842 63.367976 -0.714119 10.132977 -17.406385 27.078869 -3.746047 5.222908 3.674485 -9.032856 
1.793069 0.577802 0.987075 -94.776785 3.686876 87.661339 0.902687 -1.933907 1.394409 -2.926658 -12.296588 4.927137 6.203638 10.732701 -17.390570 0.000000 -0.000000 0.000000 3.617375 -0.788314 -3.506263 2.546470 -0.662785 10.585015 2.783505 -5.620143 -11.865789 0.000000 -0.000000 0.000000 -0.854590 2.438625 9.776453 2.793992 -0.543872 3.628600 0.795131 -0.626834 6.356232 5.731072 3.067211 10.922070 3.056798 -2.101680 15.813250 -22.077303 8.980616 2.521433 -63.782650 -6.899648 11.785556 10.426514 -39.448480 7.654993 0.110495 -3.063845 -15.600058 20.915738 -7.823368 2.198494 62.976506 -0.360047 10.051042 -17.441023 27.470436 -3.601404 5.571921 3.680846 -9.217655 
1.790820 0.578929 0.987144 -94.789699 3.799528 87.521502 1.040475 -1.905095 1.611386 -2.906790 -12.142225 5.238730 6.176682 10.713473 -17.908162 0.000000 -0.000000 0.000000 3.740776 -1.024952 -2.964488 2.707836 -0.574770 10.225147 2.693228 -5.482600 -11.919486 0.000000 -0.000000 0.000000 -0.817337 2.599711 9.295735 2.893416 -0.706240 3.801627 0.765394 -0.702130 6.311513 6.002685 2.984547 10.903723 3.022363 -2.306464 15.620648 -22.203220 8.801207 2.680532 -63.963690 -6.323403 11.891509 9.787751 -38.145012 8.852994 -0.255081 -3.240452 -14.459835 21.044241 -7.772253 1.971187 62.819030 -0.139580 9.918570 -17.834555 27.769603 -4.045293 5.251512 3.737906 -9.508330 
1.788170 0.580229 0.987039 -95.010846 3.846049 87.242040 1.131690 -1.776914 2.088150 -2.846775 -12.089497 5.331807 6.162584 10.722326 -18.067168 0.000000 -0.000000 0.000000 3.967921 -0.935938 -2.431138 2.610711 -0.275074 10.061624 2.500323 -5.661998 -12.031731 0.000000 -0.000000 0.000000 -0.915234 2.632886 8.935626 2.951786 -0.783179 4.055583 0.755018 -0.695397 6.132156 6.178937 2.961880 11.056762 2.740682 -2.248498 15.895823 -22.231150 8.864337 2.887140 -64.211601 -5.866644 11.602257 9.380159 -36.499222 9.971514 -0.872488 -3.487616 -13.393021 20.863771 -7.773218 1.954673 63.072470 0.246549 9.660552 -18.251071 27.921140 -4.424356 5.313587 3.928470 -10.343903 
1.785446 0.581981 0.986803 -95.134610 3.757053 87.114997 1.033947 -1.667403 2.362963 -2.678725 -12.177458 5.487350 6.044727 10.756620 -18.317413 0.000000 -0.000000 0.000000 3.858647 -0.940837 -2.098393 2.852344 -0.158176 10.046800 2.467468 -5.622133 -12.282320 0.000000 -0.000000 0.000000 -1.066848 2.735737 8.575438 2.891101 -0.807251 3.924783 0.690597 -0.835154 6.256417 6.430977 2.724596 10.511548 2.532235 -2.405359 15.770746 -22.220919 9.082137 2.895701 -64.502219 -5.415590 11.264583 9.272718 -34.291652 10.182927 -1.300599 -3.325361 -13.051366 20.782590 -8.081078 1.640478 63.384906 0.578134 9.710610 -18.462342 28.275983 -4.485646 5.370547 3.926995 -10.734517 
1.783564 0.583855 0.986910 -95.155807 3.719676 86.933768 1.086143 -1.503001 2.845732 -2.613257 -12.449015 5.277458 5.879909 10.730274 -18.535692 0.000000 -0.000000 0.000000 4.004219 -0.890942 -1.735020 2.734453 -0.201267 10.056028 2.347570 -5.637645 -12.466359 0.000000 -0.000000 0.000000 -1.232321 2.669459 8.425753 2.750065 -0.907486 4.065161 0.692834 -0.756928 6.048185 6.488597 3.302046 10.735600 2.806165 -1.805222 15.324267 -22.253634 8.921984 3.051736 -64.593274 -4.886533 10.807194 9.910113 -32.765961 9.210674 -1.738205 -3.131803 -13.035741 20.802761 -8.008889 1.574384 63.670091 0.621982 9.786504 -18.504153 28.570546 -4.252553 5.805299 3.801638 -11.311252 
1.781490 0.585343 0.986933 -95.080710 3.603098 86.936091 1.091660 -1.383288 3.164049 -2.601421 -12.480759 4.998231 5.879784 10.695321 -18.520053 0.000000 -0.000000 0.000000 3.971044 -0.980789 -1.363435 2.760927 -0.048324 9.670880 2.277967 -5.771754 -12.443974 0.000000 -0.000000 0.000000 -1.367930 2.813996 7.939350 2.686994 -0.936098 4.243014 0.678446 -0.825439 6.176023 6.591977 3.211004 10.121112 2.796124 -1.791825 14.527871 -22.391334 8.813341 2.888773 -64.419269 -4.691336 10.584411 10.152912 -31.215053 8.345748 -1.521287 -2.791735 -13.208492 20.850774 -8.016437 1.296054 63.770374 0.344754 10.067171 -18.495658 28.929684 -4.142370 5.423661 3.810412 -11.266334 
1.779381 0.586310 0.986829 -94.648903 3.652925 86.962330 1.167841 -1.583374 3.481239 -2.455716 -12.680155 4.627480 5.805317 10.618787 -18.445635 0.000000 -0.000000 0.000000 4.072042 -1.195952 -0.908708 2.824397 -0.014493 9.075056 2.120197 -5.816636 -12.461679 0.000000 -0.000000 0.000000 -1.262672 2.730622 7.703226 2.616368 -1.014245 4.155014 0.724726 -0.651428 6.078852 6.436616 3.593925 9.819246 2.750376 -1.460002 14.420183 -22.318469 8.700360 2.902912 -64.612271 -4.509853 10.260356 10.505167 -29.778918 7.667022 -0.936205 -2.774169 -13.314731 20.737067 -8.100194 1.616601 64.020085 0.366376 9.979241 -18.466661 28.866570 -3.884287 5.232541 4.070942 -11.519004 
